<svg xmlns="http://www.w3.org/2000/svg" xmlns:xlink="http://www.w3.org/1999/xlink" width="150" zoomAndPan="magnify" viewBox="0 0 112.5 37.5" height="50" preserveAspectRatio="xMidYMid meet" version="1.0"><defs><g/><clipPath id="3f9f896627"><path d="M 4 7.25 L 28.617188 7.25 L 28.617188 14 L 4 14 Z M 4 7.25 " clip-rule="nonzero"/></clipPath><clipPath id="bab8c85a4c"><path d="M 0.492188 23 L 25 23 L 25 29.453125 L 0.492188 29.453125 Z M 0.492188 23 " clip-rule="nonzero"/></clipPath></defs><g clip-path="url(#3f9f896627)"><path fill="#03a1fe" d="M 9.015625 7.25 L 28.703125 7.25 L 24.109375 13.464844 L 4.417969 13.464844 Z M 9.015625 7.25 " fill-opacity="1" fill-rule="evenodd"/></g><path fill="#006ab3" d="M 4.417969 13.464844 L 14.265625 13.464844 L 9.28125 20.175781 L 4.957031 14.210938 Z M 4.417969 13.464844 " fill-opacity="1" fill-rule="evenodd"/><g clip-path="url(#bab8c85a4c)"><path fill="#03a1fe" d="M 20.191406 29.753906 L 0.5 29.753906 L 5.105469 23.539062 L 24.796875 23.539062 Z M 20.191406 29.753906 " fill-opacity="1" fill-rule="evenodd"/></g><path fill="#006ab3" d="M 24.796875 23.539062 L 14.949219 23.539062 L 19.921875 16.828125 L 24.257812 22.792969 Z M 24.796875 23.539062 " fill-opacity="1" fill-rule="evenodd"/><g fill="#006ab3" fill-opacity="1"><g transform="translate(32.839582, 24.315719)"><g><path d="M 0.921875 -6.46875 C 0.921875 -8.46875 1.28125 -10.03125 2 -11.15625 C 2.71875 -12.28125 3.914062 -12.84375 5.59375 -12.84375 C 7.257812 -12.84375 8.453125 -12.28125 9.171875 -11.15625 C 9.890625 -10.03125 10.25 -8.46875 10.25 -6.46875 C 10.25 -4.457031 9.890625 -2.878906 9.171875 -1.734375 C 8.453125 -0.597656 7.257812 -0.03125 5.59375 -0.03125 C 3.914062 -0.03125 2.71875 -0.597656 2 -1.734375 C 1.28125 -2.878906 0.921875 -4.457031 0.921875 -6.46875 Z M 7.875 -6.46875 C 7.875 -7.320312 7.816406 -8.039062 7.703125 -8.625 C 7.597656 -9.207031 7.378906 -9.679688 7.046875 -10.046875 C 6.722656 -10.421875 6.238281 -10.609375 5.59375 -10.609375 C 4.945312 -10.609375 4.457031 -10.421875 4.125 -10.046875 C 3.789062 -9.679688 3.566406 -9.207031 3.453125 -8.625 C 3.347656 -8.039062 3.296875 -7.320312 3.296875 -6.46875 C 3.296875 -5.59375 3.347656 -4.859375 3.453125 -4.265625 C 3.554688 -3.671875 3.773438 -3.191406 4.109375 -2.828125 C 4.453125 -2.460938 4.945312 -2.28125 5.59375 -2.28125 C 6.238281 -2.28125 6.726562 -2.460938 7.0625 -2.828125 C 7.394531 -3.191406 7.613281 -3.671875 7.71875 -4.265625 C 7.820312 -4.859375 7.875 -5.59375 7.875 -6.46875 Z M 7.875 -6.46875 "/></g></g></g><g fill="#006ab3" fill-opacity="1"><g transform="translate(44.016729, 24.315719)"><g><path d="M 0.8125 -2.453125 L 0.8125 -4.359375 L 6.46875 -12.453125 L 9.28125 -12.453125 L 9.28125 -4.5625 L 10.8125 -4.5625 L 10.8125 -2.453125 L 9.28125 -2.453125 L 9.28125 0 L 6.859375 0 L 6.859375 -2.453125 Z M 7.015625 -9.859375 L 3.484375 -4.5625 L 7.015625 -4.5625 Z M 7.015625 -9.859375 "/></g></g></g><g fill="#006ab3" fill-opacity="1"><g transform="translate(55.453405, 24.315719)"><g><path d="M 8.59375 -2.296875 L 3.78125 -2.296875 L 3 0 L 0.453125 0 L 4.796875 -12.09375 L 7.609375 -12.09375 L 11.953125 0 L 9.390625 0 Z M 7.9375 -4.234375 L 6.1875 -9.28125 L 4.4375 -4.234375 Z M 7.9375 -4.234375 "/></g></g></g><g fill="#006ab3" fill-opacity="1"><g transform="translate(67.841699, 24.315719)"><g><path d="M 5.40625 -12.078125 C 6.675781 -12.078125 7.789062 -11.828125 8.75 -11.328125 C 9.71875 -10.828125 10.460938 -10.117188 10.984375 -9.203125 C 11.515625 -8.285156 11.78125 -7.222656 11.78125 -6.015625 C 11.78125 -4.804688 11.515625 -3.75 10.984375 -2.84375 C 10.460938 -1.9375 9.71875 -1.234375 8.75 -0.734375 C 7.789062 -0.242188 6.675781 0 5.40625 0 L 1.1875 0 L 1.1875 -12.078125 Z M 5.328125 -2.0625 C 6.597656 -2.0625 7.578125 -2.40625 8.265625 -3.09375 C 8.960938 -3.789062 9.3125 -4.765625 9.3125 -6.015625 C 9.3125 -7.273438 8.960938 -8.257812 8.265625 -8.96875 C 7.578125 -9.675781 6.597656 -10.03125 5.328125 -10.03125 L 3.609375 -10.03125 L 3.609375 -2.0625 Z M 5.328125 -2.0625 "/></g></g></g><g fill="#006ab3" fill-opacity="1"><g transform="translate(80.247293, 24.315719)"><g><path d="M 5.359375 0.125 C 4.515625 0.125 3.753906 -0.0195312 3.078125 -0.3125 C 2.410156 -0.601562 1.878906 -1.019531 1.484375 -1.5625 C 1.097656 -2.101562 0.894531 -2.742188 0.875 -3.484375 L 3.484375 -3.484375 C 3.515625 -2.984375 3.6875 -2.585938 4 -2.296875 C 4.320312 -2.015625 4.757812 -1.875 5.3125 -1.875 C 5.875 -1.875 6.316406 -2.007812 6.640625 -2.28125 C 6.960938 -2.550781 7.125 -2.90625 7.125 -3.34375 C 7.125 -3.695312 7.015625 -3.988281 6.796875 -4.21875 C 6.578125 -4.445312 6.300781 -4.628906 5.96875 -4.765625 C 5.644531 -4.898438 5.195312 -5.046875 4.625 -5.203125 C 3.832031 -5.429688 3.191406 -5.660156 2.703125 -5.890625 C 2.210938 -6.117188 1.789062 -6.457031 1.4375 -6.90625 C 1.09375 -7.363281 0.921875 -7.972656 0.921875 -8.734375 C 0.921875 -9.453125 1.097656 -10.078125 1.453125 -10.609375 C 1.804688 -11.140625 2.304688 -11.546875 2.953125 -11.828125 C 3.597656 -12.109375 4.335938 -12.25 5.171875 -12.25 C 6.421875 -12.25 7.429688 -11.945312 8.203125 -11.34375 C 8.984375 -10.738281 9.414062 -9.890625 9.5 -8.796875 L 6.828125 -8.796875 C 6.804688 -9.210938 6.628906 -9.554688 6.296875 -9.828125 C 5.972656 -10.097656 5.539062 -10.234375 5 -10.234375 C 4.53125 -10.234375 4.148438 -10.113281 3.859375 -9.875 C 3.578125 -9.632812 3.4375 -9.285156 3.4375 -8.828125 C 3.4375 -8.503906 3.539062 -8.234375 3.75 -8.015625 C 3.96875 -7.804688 4.234375 -7.632812 4.546875 -7.5 C 4.867188 -7.363281 5.316406 -7.210938 5.890625 -7.046875 C 6.679688 -6.804688 7.320312 -6.570312 7.8125 -6.34375 C 8.3125 -6.113281 8.738281 -5.769531 9.09375 -5.3125 C 9.457031 -4.851562 9.640625 -4.25 9.640625 -3.5 C 9.640625 -2.851562 9.46875 -2.25 9.125 -1.6875 C 8.789062 -1.132812 8.300781 -0.691406 7.65625 -0.359375 C 7.007812 -0.0351562 6.242188 0.125 5.359375 0.125 Z M 5.359375 0.125 "/></g></g></g></svg>