<svg xmlns="http://www.w3.org/2000/svg" xmlns:xlink="http://www.w3.org/1999/xlink" width="150" zoomAndPan="magnify" viewBox="0 0 112.5 37.5" height="50" preserveAspectRatio="xMidYMid meet" version="1.0"><defs><g/><clipPath id="bbf8f0aead"><path d="M 4 7.25 L 28.617188 7.25 L 28.617188 14 L 4 14 Z M 4 7.25 " clip-rule="nonzero"/></clipPath><clipPath id="387c6e87f6"><path d="M 0.492188 23 L 25 23 L 25 29.453125 L 0.492188 29.453125 Z M 0.492188 23 " clip-rule="nonzero"/></clipPath></defs><g clip-path="url(#bbf8f0aead)"><path fill="#03a1fe" d="M 8.902344 7.25 L 28.328125 7.25 L 23.792969 13.382812 L 4.367188 13.382812 Z M 8.902344 7.25 " fill-opacity="1" fill-rule="evenodd"/></g><path fill="#006ab3" d="M 4.367188 13.382812 L 14.082031 13.382812 L 9.164062 20.003906 L 4.898438 14.117188 Z M 4.367188 13.382812 " fill-opacity="1" fill-rule="evenodd"/><g clip-path="url(#387c6e87f6)"><path fill="#03a1fe" d="M 19.929688 29.453125 L 0.5 29.453125 L 5.042969 23.320312 L 24.472656 23.320312 Z M 19.929688 29.453125 " fill-opacity="1" fill-rule="evenodd"/></g><path fill="#006ab3" d="M 24.472656 23.320312 L 14.757812 23.320312 L 19.664062 16.699219 L 23.941406 22.585938 Z M 24.472656 23.320312 " fill-opacity="1" fill-rule="evenodd"/><g fill="#006ab3" fill-opacity="1"><g transform="translate(32.649496, 24.315719)"><g><path d="M 0.917969 -6.472656 C 0.917969 -8.464844 1.277344 -10.03125 2 -11.160156 C 2.71875 -12.289062 3.917969 -12.855469 5.589844 -12.855469 C 7.261719 -12.855469 8.457031 -12.289062 9.179688 -11.160156 C 9.898438 -10.03125 10.261719 -8.464844 10.261719 -6.472656 C 10.261719 -4.464844 9.898438 -2.890625 9.179688 -1.746094 C 8.457031 -0.605469 7.261719 -0.0351562 5.589844 -0.0351562 C 3.917969 -0.0351562 2.71875 -0.605469 2 -1.746094 C 1.277344 -2.890625 0.917969 -4.464844 0.917969 -6.472656 Z M 7.871094 -6.472656 C 7.871094 -7.324219 7.816406 -8.042969 7.707031 -8.625 C 7.597656 -9.207031 7.378906 -9.683594 7.050781 -10.050781 C 6.722656 -10.421875 6.234375 -10.605469 5.589844 -10.605469 C 4.941406 -10.605469 4.457031 -10.421875 4.125 -10.050781 C 3.796875 -9.683594 3.578125 -9.207031 3.46875 -8.625 C 3.359375 -8.042969 3.304688 -7.324219 3.304688 -6.472656 C 3.304688 -5.59375 3.355469 -4.859375 3.460938 -4.265625 C 3.5625 -3.671875 3.785156 -3.191406 4.117188 -2.828125 C 4.453125 -2.464844 4.941406 -2.285156 5.589844 -2.285156 C 6.234375 -2.285156 6.726562 -2.464844 7.058594 -2.828125 C 7.394531 -3.191406 7.613281 -3.671875 7.714844 -4.265625 C 7.820312 -4.859375 7.871094 -5.59375 7.871094 -6.472656 Z M 7.871094 -6.472656 "/></g></g></g><g fill="#006ab3" fill-opacity="1"><g transform="translate(43.826642, 24.315719)"><g><path d="M 0.8125 -2.457031 L 0.8125 -4.359375 L 6.472656 -12.457031 L 9.292969 -12.457031 L 9.292969 -4.566406 L 10.8125 -4.566406 L 10.8125 -2.457031 L 9.292969 -2.457031 L 9.292969 0 L 6.867188 0 L 6.867188 -2.457031 Z M 7.023438 -9.863281 L 3.476562 -4.566406 L 7.023438 -4.566406 Z M 7.023438 -9.863281 "/></g></g></g><g fill="#006ab3" fill-opacity="1"><g transform="translate(55.263319, 24.315719)"><g><path d="M 14.359375 -12.078125 L 14.359375 0 L 11.9375 0 L 11.9375 -7.855469 L 8.703125 0 L 6.867188 0 L 3.617188 -7.855469 L 3.617188 0 L 1.195312 0 L 1.195312 -12.078125 L 3.945312 -12.078125 L 7.785156 -3.097656 L 11.628906 -12.078125 Z M 14.359375 -12.078125 "/></g></g></g><g fill="#006ab3" fill-opacity="1"><g transform="translate(70.817892, 24.315719)"><g><path d="M 3.617188 -10.121094 L 3.617188 -7.09375 L 7.683594 -7.09375 L 7.683594 -5.171875 L 3.617188 -5.171875 L 3.617188 -1.972656 L 8.203125 -1.972656 L 8.203125 0 L 1.195312 0 L 1.195312 -12.09375 L 8.203125 -12.09375 L 8.203125 -10.121094 Z M 3.617188 -10.121094 "/></g></g></g><g fill="#006ab3" fill-opacity="1"><g transform="translate(80.0226, 24.315719)"><g><path d="M 5.414062 -12.078125 C 6.683594 -12.078125 7.800781 -11.828125 8.761719 -11.332031 C 9.726562 -10.835938 10.46875 -10.128906 10.996094 -9.214844 C 11.519531 -8.296875 11.78125 -7.230469 11.78125 -6.019531 C 11.78125 -4.808594 11.519531 -3.75 10.996094 -2.847656 C 10.46875 -1.941406 9.726562 -1.238281 8.761719 -0.742188 C 7.800781 -0.246094 6.683594 0 5.414062 0 L 1.195312 0 L 1.195312 -12.078125 Z M 5.328125 -2.058594 C 6.597656 -2.058594 7.578125 -2.40625 8.269531 -3.097656 C 8.960938 -3.789062 9.308594 -4.765625 9.308594 -6.019531 C 9.308594 -7.277344 8.960938 -8.261719 8.269531 -8.972656 C 7.578125 -9.679688 6.597656 -10.035156 5.328125 -10.035156 L 3.617188 -10.035156 L 3.617188 -2.058594 Z M 5.328125 -2.058594 "/></g></g></g><g fill="#006ab3" fill-opacity="1"><g transform="translate(92.428195, 24.315719)"><g><path d="M 1.195312 -12.078125 L 3.617188 -12.078125 L 3.617188 0 L 1.195312 0 Z M 1.195312 -12.078125 "/></g></g></g><g fill="#006ab3" fill-opacity="1"><g transform="translate(97.238176, 24.315719)"><g><path d="M 8.597656 -2.300781 L 3.789062 -2.300781 L 2.992188 0 L 0.449219 0 L 4.792969 -12.09375 L 7.613281 -12.09375 L 11.957031 0 L 9.394531 0 Z M 7.941406 -4.238281 L 6.195312 -9.292969 L 4.445312 -4.238281 Z M 7.941406 -4.238281 "/></g></g></g></svg>